PathFileType	4	(X/Y/Z)	7_coords_data.trc
DataRate	CameraRate	NumFrames	NumMarkers	Units	OrigDataRate	OrigDataStartFrame	OrigNumFrames
30.0	30.0	6	21	m	30.0	33	86
Frame#	Time	THUMB_TIP	THUMB_IP	THUMB_MCP	THUMB_CMC	INDEX_TIP	INDEX_DIP	INDEX_PIP	INDEX_MCP	MIDDLE_TIP	MIDDLE_DIP	MIDDLE_PIP	MIDDLE_MCP	RING_TIP	RING_DIP	RING_PIP	RING_MCP	PINKY_TIP	PINKY_DIP	PINKY_PIP	PINKY_MCP	WRIST
X1	Y1	Z1	X2	Y2	Z2	X3	Y3	Z3	X4	Y4	Z4	X5	Y5	Z5	X6	Y6	Z6	X7	Y7	Z7	X8	Y8	Z8	X9	Y9	Z9	X10	Y10	Z10	X11	Y11	Z11	X12	Y12	Z12	X13	Y13	Z13	X14	Y14	Z14	X15	Y15	Z15	X16	Y16	Z16	X17	Y17	Z17	X18	Y18	Z18	X19	Y19	Z19	X20	Y20	Z20	X21	Y21	Z21
31	1.0666666666666622	0.530995684762339	-0.027442189908305797	-0.13550506211796387	0.5081295519901653	-0.025326492438653536	-0.1346903251897265	0.4811109611251989	-0.019007080416508615	-0.12058781550648484	0.4695045481261688	-0.02975665193739563	-0.07887896885001061	0.5549598990651856	0.07337371079653932	-0.15180574775093797	0.5424077784633948	0.061539698503961404	-0.14629209003058447	0.5259209777019076	0.04560667362015053	-0.13598025451488271	0.5010846298335604	0.018173527589766758	-0.11490385972264927	0.51373673498687	-0.01768363679414786	-0.13217397305574596	0.530747450304537	-0.01224994259555301	-0.13519233879525588	0.5450798815203971	0.01107836601039719	-0.12520329564647575	0.5167570426551005	0.02216601160949183	-0.09247671876041375	0.5319672380836833	-0.02627786786778108	-0.11914509754851327	0.5471559333765271	-0.01672967031000755	-0.11737437489974117	0.558656820365206	0.0017716802485780447	-0.10530749440054155	0.5307769830856637	0.009941242035011788	-0.07718821689410682	0.5947523157844417	0.028590326901986207	-0.05684604111856445	0.5808879360224026	0.018924099469691535	-0.05955584204134756	0.5633143643832427	0.008103283609199485	-0.06341479824175184	0.5330478132220765	-0.010642728763329445	-0.06919462107100055	0.462283081001861	-0.023011742144276925	-0.051989820119430985
32	1.0999999999999952	0.5309675126021379	-0.02778088506957682	-0.13546808770183566	0.5081075900120064	-0.025585471437162943	-0.1346908501861404	0.4811150311624983	-0.019164883614897987	-0.12058419151824812	0.46949409508363205	-0.029840907709701325	-0.07886050095547459	0.5550166504892066	0.07314296875690957	-0.15195384466696238	0.5424790125537114	0.06129809314137147	-0.14643057057899034	0.5260064818016814	0.04535901844477791	-0.13610528794654708	0.5011877923658058	0.0179357092572881	-0.1149953172717002	0.5137904023857097	-0.01797277127948979	-0.13220765148898084	0.5308209717266886	-0.012606279987037311	-0.13523427983255693	0.5451819724021537	0.010710949015264482	-0.1252604119141657	0.5168693249316706	0.021942535669929764	-0.09257412464517634	0.5319627679277815	-0.026567126493936194	-0.11907526439104288	0.54719050323098	-0.01707383565768475	-0.11734508907216018	0.558737572927254	0.0014139754185411024	-0.10530158451413502	0.5308557445190106	0.009743835118901534	-0.07723135266640008	0.5948868925591356	0.028256303321135268	-0.05693719922072665	0.5810018908683565	0.01861446809101458	-0.059628247611644314	0.5634028419668409	0.007827293741345942	-0.06346522119924075	0.5330835917861946	-0.01084895927623225	-0.06919445262298213	0.4622830810018609	-0.023011742144276925	-0.051989820119430985
33	1.1333333333333284	0.530955821956405	-0.0281485250754287	-0.13541389042039165	0.5081025780489907	-0.02587260643295708	-0.13467265008077184	0.4811312617905058	-0.019327606812023918	-0.12058254435913973	0.4694858392669746	-0.02991632673517669	-0.07884343626328483	0.5552121560123041	0.07283149680445211	-0.15203874109887677	0.5426673646672384	0.06099545724121158	-0.14651276810164154	0.5261770819946128	0.04507058881472098	-0.13619390304894008	0.5013261727718898	0.017686172089627417	-0.11507135288494708	0.513852865463136	-0.01833425892483609	-0.13221423988642428	0.5308966963201487	-0.013028912742185289	-0.1352738365264694	0.5452976680580724	0.010272255608144543	-0.12532008765917763	0.5170101802047432	0.021680838683662107	-0.09267333921225324	0.5319311591553033	-0.026908332214636843	-0.11899149903735767	0.5472021974574199	-0.017477695174266644	-0.11730079676076205	0.5588314770620002	0.0009831848539847976	-0.10529514211551244	0.5309480103886988	0.0095081741893287	-0.07728518536597123	0.5950808263478392	0.027801512555395758	-0.05706170988924153	0.5811631724967602	0.018200505869652217	-0.05972996435646377	0.5635209769868021	0.00747226120058192	-0.0635338732550812	0.5331238696124894	-0.011095927190319765	-0.06920147364276569	0.4622830810018609	-0.023011742144276925	-0.051989820119430985
34	1.1666666666666616	0.5309466120730609	-0.028516934983116055	-0.13533429684624138	0.5081026199351917	-0.026138719017496925	-0.13462994464326017	0.48114665171661797	-0.019461441763135856	-0.12057257128022975	0.4694893105770671	-0.0299936706338908	-0.07882249879442238	0.5555655736811406	0.07250243200415357	-0.15196233878672905	0.5429859888915494	0.06069284960858484	-0.14645890257252964	0.5264452641009562	0.04479179073911754	-0.13618414791698719	0.5015037628056658	0.017450178642094583	-0.11511298622445221	0.5139112453167272	-0.01867465183326747	-0.1321913894381992	0.530973460335	-0.013445897949526886	-0.1352802325053511	0.5454401769464398	0.00981814261103936	-0.12533497849750275	0.5171751281444182	0.021419883144597418	-0.09273690257558154	0.5318871647379252	-0.027263643701668783	-0.11888665969472634	0.5472003969336819	-0.017896667215916207	-0.11722392964020834	0.55893979379169	0.0005191806747741334	-0.1052563448012715	0.5310598082475841	0.009253560994309795	-0.077307501524775	0.5953258309382671	0.02723849055985017	-0.057174261055760234	0.581360992203771	0.01769810242407771	-0.05981325202549259	0.5636654447795967	0.007047822093757872	-0.06358832146119864	0.5331687577023804	-0.011371823083949795	-0.06920545594790051	0.462283081001861	-0.023011742144276925	-0.051989820119430985
35	1.1999999999999948	0.5309953308819622	-0.02890558277906824	-0.13525326842666208	0.508161188305708	-0.026431280611250746	-0.1345606201828649	0.4812011572285594	-0.019632879888527438	-0.1205692488443415	0.46948963535822297	-0.030054353340373846	-0.07880654842191803	0.5560428562624156	0.07214789913128206	-0.15176317763396496	0.5434162272652684	0.06036822355966398	-0.14630355460706773	0.5267896580266564	0.04450811297370294	-0.13610434284562595	0.5017204682255819	0.01720558462936922	-0.11513427458811776	0.5140422229877739	-0.01899759597136924	-0.1321578281649008	0.5311330683948657	-0.01387270788188727	-0.1352624256172562	0.545627257901326	0.009371567731204955	-0.1253109598069635	0.5173639095022563	0.021150479711853076	-0.09277500598930288	0.5319228323312845	-0.027623724488634205	-0.11875063726480761	0.5472684478862315	-0.01830887854817312	-0.11709361332254015	0.5590872797855081	7.013845509012961e-05	-0.105147612923645	0.5311878907426572	0.00900067457304038	-0.07728024043032156	0.5955803465662693	0.026659420951505752	-0.05718003985634934	0.5815718383825325	0.01717983289552466	-0.05980665531261248	0.5638275728691822	0.006607918741697916	-0.06357331052856224	0.5332265689255887	-0.011649467828410198	-0.06915272306697734	0.462283081001861	-0.023011742144276925	-0.051989820119430985
36	1.233333333333328	0.5310672387006522	-0.02935964725861054	-0.13512540970914183	0.5082446373735515	-0.026768413416886655	-0.1344816893958617	0.48128312065728207	-0.01982979724386219	-0.1205621986737927	0.46947306041725845	-0.03011800013107102	-0.07879420424649647	0.556667692643217	0.07171192669840976	-0.15146768466011895	0.5439758772093849	0.05996994658905508	-0.1460784617008175	0.5272507063687067	0.04415184596777727	-0.13597568059434717	0.5019698739600407	0.016933563662993978	-0.11515067843103238	0.5142116446102791	-0.01940308753546366	-0.1321251920892219	0.5313280887876302	-0.014369584682121045	-0.13523825934660966	0.5458548166055165	0.008851240211914524	-0.1252794933514883	0.5175980699549113	0.02082515193942719	-0.09280905098207726	0.5320005519244125	-0.028021329802719763	-0.11862215380916297	0.5473940563576787	-0.018785845513955263	-0.11696509279187978	0.5592872660557453	-0.0004538031216471672	-0.10502073161999465	0.5313436366755242	0.00867716022780235	-0.07726285130877741	0.5958648866218093	0.02597722586774731	-0.057135383355445046	0.5818033230426009	0.0165754403861324	-0.05975814134381807	0.5639979255428118	0.006100804919038638	-0.06350805477028648	0.5332938574817607	-0.011981621577552337	-0.06909102060375999	0.4622830810018608	-0.023011742144276898	-0.051989820119430985
